<?xml version="1.0" encoding="utf-8"?>
<!-- Generator: Adobe Illustrator 19.0.0, SVG Export Plug-In . SVG Version: 6.00 Build 0)  -->
<svg version="1.1" baseProfile="tiny" id="Layer_1" xmlns="http://www.w3.org/2000/svg" xmlns:xlink="http://www.w3.org/1999/xlink"
	 x="0px" y="0px" viewBox="0 0 900 713.6" xml:space="preserve">
<circle id="XMLID_28_" fill="#F1F2F2" cx="450" cy="460.7" r="244"/>
<circle id="XMLID_14_" fill="#E6E7E8" cx="450" cy="292.6" r="274"/>
<g id="XMLID_1_">
	<g id="XMLID_19_">
		<circle id="XMLID_75_" fill="#FFFFFF" cx="450" cy="143.7" r="79.3"/>
	</g>
	<text transform="matrix(1 0 0 1 437.0713 148.1735)" fill="#6AB7CF" font-family="'MyriadPro-Regular'" font-size="14px">M</text>
	<text transform="matrix(1 0 0 1 448.4111 148.1735)" fill="#6AB7CF" font-family="'MyriadPro-Regular'" font-size="14px">a</text>
	<text transform="matrix(1 0 0 1 455.1592 148.1735)" fill="#6AB7CF" font-family="'MyriadPro-Regular'" font-size="14px">n</text>
</g>
<g id="XMLID_2_">
	<g id="XMLID_15_">
		<circle id="XMLID_74_" fill="#FFFFFF" cx="314.3" cy="391.6" r="79.3"/>
	</g>
	<text transform="matrix(1 0 0 1 294.2297 395.7212)" fill="#6AB7CF" font-family="'MyriadPro-Regular'" font-size="14px">P</text>
	<text transform="matrix(1 0 0 1 301.3278 395.7212)" fill="#6AB7CF" font-family="'MyriadPro-Regular'" font-size="14px">e</text>
	<text transform="matrix(1 0 0 1 308.3415 395.7212)" fill="#6AB7CF" font-family="'MyriadPro-Regular'" font-size="14px">o</text>
	<text transform="matrix(1 0 0 1 316.0275 395.7212)" fill="#6AB7CF" font-family="'MyriadPro-Regular'" font-size="14px">p</text>
	<text transform="matrix(1 0 0 1 323.9933 395.7212)" fill="#6AB7CF" font-family="'MyriadPro-Regular'" font-size="14px">l</text>
	<text transform="matrix(1 0 0 1 327.2971 395.7212)" fill="#6AB7CF" font-family="'MyriadPro-Regular'" font-size="14px">e</text>
</g>
<g id="XMLID_3_">
	<g id="XMLID_18_">
		<circle id="XMLID_73_" fill="#FFFFFF" cx="587.3" cy="392.6" r="79.3"/>
	</g>
	<text transform="matrix(1 0 0 1 566.2288 396.7212)" fill="#6AB7CF" font-family="'MyriadPro-Regular'" font-size="14px">S</text>
	<text transform="matrix(1 0 0 1 573.0188 396.7212)" fill="#6AB7CF" font-family="'MyriadPro-Regular'" font-size="14px">y</text>
	<text transform="matrix(1 0 0 1 579.5286 396.7212)" fill="#6AB7CF" font-family="'MyriadPro-Regular'" font-size="14px">s</text>
	<text transform="matrix(1 0 0 1 585.0725 396.7212)" fill="#6AB7CF" font-family="'MyriadPro-Regular'" font-size="14px">t</text>
	<text transform="matrix(1 0 0 1 589.6223 396.7212)" fill="#6AB7CF" font-family="'MyriadPro-Regular'" font-size="14px">e</text>
	<text transform="matrix(1 0 0 1 596.637 396.7212)" fill="#6AB7CF" font-family="'MyriadPro-Regular'" font-size="14px">m</text>
</g>
<text transform="matrix(1 0 0 1 430.3586 296.1338)" fill="#6AB7CF" font-family="'MyriadPro-Regular'" font-size="14px">R</text>
<text transform="matrix(1 0 0 1 437.9465 296.1338)" fill="#6AB7CF" font-family="'MyriadPro-Regular'" font-size="14px">e</text>
<text transform="matrix(1 0 0 1 444.9602 296.1338)" fill="#6AB7CF" font-family="'MyriadPro-Regular'" font-size="14px">a</text>
<text transform="matrix(1 0 0 1 451.7083 296.1338)" fill="#6AB7CF" font-family="'MyriadPro-Regular'" font-size="14px">l</text>
<text transform="matrix(1 0 0 1 455.0125 296.1338)" fill="#6AB7CF" font-family="'MyriadPro-Regular'" font-size="14px">i</text>
<text transform="matrix(1 0 0 1 458.2883 296.1338)" fill="#6AB7CF" font-family="'MyriadPro-Regular'" font-size="14px">t</text>
<text transform="matrix(1 0 0 1 463.0481 296.1338)" fill="#6AB7CF" font-family="'MyriadPro-Regular'" font-size="14px">y</text>
<g id="XMLID_4_">
	<g id="XMLID_26_">
		<circle id="XMLID_72_" fill="#FFFFFF" cx="450.9" cy="637.6" r="55.5"/>
	</g>
	<text transform="matrix(1 0 0 1 437.6524 641.7211)" fill="#6AB7CF" font-family="'MyriadPro-Regular'" font-size="14px">G</text>
	<text transform="matrix(1 0 0 1 446.7662 641.7211)" fill="#6AB7CF" font-family="'MyriadPro-Regular'" font-size="14px">o</text>
	<text transform="matrix(1 0 0 1 454.4522 641.7211)" fill="#6AB7CF" font-family="'MyriadPro-Regular'" font-size="14px">d</text>
</g>
<text id="XMLID_25_" transform="matrix(1 0 0 1 303.3927 603.0003)" fill="#6AB7CF" font-family="'MyriadPro-Regular'" font-size="14px">Ideas</text>
</svg>
