<?xml version="1.0" encoding="utf-8"?>
<!-- Generator: Adobe Illustrator 19.0.0, SVG Export Plug-In . SVG Version: 6.00 Build 0)  -->
<svg version="1.1" id="Layer_1" xmlns="http://www.w3.org/2000/svg" xmlns:xlink="http://www.w3.org/1999/xlink" x="0px" y="0px"
	 viewBox="170 -59.6 900 520" style="enable-background:new 170 -59.6 900 520;" xml:space="preserve">
<style type="text/css">
	.st0{fill:#2EA4DD;}
	.st1{font-family:'Abel';}
	.st2{font-size:25.509px;}
	.st3{fill:none;stroke:#BCBEC0;stroke-miterlimit:10;}
	.st4{font-size:19.7253px;}
	.st5{fill:#4D4D4D;}
	.st6{fill:#00AEEF;}
</style>
<g>
	<text id="XMLID_1_" transform="matrix(1 0 0 1 198.9995 394.1385)" class="st0 st1 st2">Past</text>
	<text id="XMLID_2_" transform="matrix(1 0 0 1 466.9863 244.2362)" class="st0 st1 st2">Present</text>
	<text transform="matrix(1 0 0 1 906.3345 130.2313)" class="st0 st1 st2">The </text>
	<text transform="matrix(1 0 0 1 906.3345 160.8421)" class="st0 st1 st2">Best Future</text>
	<text id="XMLID_4_" transform="matrix(1 0 0 1 892.0923 375.6483)" class="st0 st1 st2">Annihiliation</text>
	<text id="XMLID_5_" transform="matrix(1 0 0 1 852.7896 36.4398)" class="st0 st1 st2">Annihiliation</text>
	<line id="XMLID_6_" class="st3" x1="246.3" y1="413.5" x2="557.8" y2="255.9"/>
	<text id="XMLID_7_" transform="matrix(1 0 0 1 352.522 394.6698)" class="st0 st1 st4">WWI</text>
	<text id="XMLID_8_" transform="matrix(1 0 0 1 440.3379 351.2743)" class="st0 st1 st4">WWII</text>
	<text id="XMLID_16_" transform="matrix(1 0 0 1 736.2163 390.7245)" class="st0 st1 st4">WWIII</text>
	<text transform="matrix(1 0 0 1 536.7686 22.5204)" class="st0 st1 st4">I</text>
	<text transform="matrix(1 0 0 1 541.1699 22.5204)" class="st0 st1 st4">r</text>
	<text transform="matrix(1 0 0 1 546.8335 22.5204)" class="st0 st1 st4">r</text>
	<text transform="matrix(1 0 0 1 552.4966 22.5204)" class="st0 st1 st4">e</text>
	<text transform="matrix(1 0 0 1 561.4541 22.5204)" class="st0 st1 st4">v</text>
	<text transform="matrix(1 0 0 1 569.4194 22.5204)" class="st0 st1 st4">e</text>
	<text transform="matrix(1 0 0 1 578.3765 22.5204)" class="st0 st1 st4">r</text>
	<text transform="matrix(1 0 0 1 584.0396 22.5204)" class="st0 st1 st4">s</text>
	<text transform="matrix(1 0 0 1 593.0933 22.5204)" class="st0 st1 st4">i</text>
	<text transform="matrix(1 0 0 1 597.437 22.5204)" class="st0 st1 st4">b</text>
	<text transform="matrix(1 0 0 1 606.2017 22.5204)" class="st0 st1 st4">l</text>
	<text transform="matrix(1 0 0 1 610.5454 22.5204)" class="st0 st1 st4">e</text>
	<text transform="matrix(1 0 0 1 619.5029 22.5204)" class="st0 st1 st4"> </text>
	<text transform="matrix(1 0 0 1 536.7686 46.1908)" class="st0 st1 st4">G</text>
	<text transform="matrix(1 0 0 1 547.3052 46.1908)" class="st0 st1 st4">l</text>
	<text transform="matrix(1 0 0 1 551.4566 46.1908)" class="st0 st1 st4">o</text>
	<text transform="matrix(1 0 0 1 560.4136 46.1908)" class="st0 st1 st4">b</text>
	<text transform="matrix(1 0 0 1 569.3711 46.1908)" class="st0 st1 st4">a</text>
	<text transform="matrix(1 0 0 1 578.3281 46.1908)" class="st0 st1 st4">l</text>
	<text transform="matrix(1 0 0 1 582.6719 46.1908)" class="st0 st1 st4"> </text>
	<text transform="matrix(1 0 0 1 587.2085 46.1908)" class="st0 st1 st4">W</text>
	<text transform="matrix(1 0 0 1 601.7036 46.1908)" class="st0 st1 st4">a</text>
	<text transform="matrix(1 0 0 1 610.6611 46.1908)" class="st0 st1 st4">r</text>
	<text transform="matrix(1 0 0 1 616.3242 46.1908)" class="st0 st1 st4">m</text>
	<text transform="matrix(1 0 0 1 630.2896 46.1908)" class="st0 st1 st4">i</text>
	<text transform="matrix(1 0 0 1 634.6343 46.1908)" class="st0 st1 st4">n</text>
	<text transform="matrix(1 0 0 1 643.5913 46.1908)" class="st0 st1 st4">g</text>
	<text transform="matrix(1 0 0 1 590.2651 230.0438)" class="st0 st1 st4">S</text>
	<text transform="matrix(1 0 0 1 600.5034 230.0438)" class="st0 st1 st4">t</text>
	<text transform="matrix(1 0 0 1 607.3516 230.0438)" class="st0 st1 st4">e</text>
	<text transform="matrix(1 0 0 1 616.3086 230.0438)" class="st0 st1 st4">e</text>
	<text transform="matrix(1 0 0 1 625.2661 230.0438)" class="st0 st1 st4">p</text>
	<text transform="matrix(1 0 0 1 634.2232 230.0438)" class="st0 st1 st4"> </text>
	<text transform="matrix(1 0 0 1 590.2651 253.7137)" class="st0 st1 st4">G</text>
	<text transform="matrix(1 0 0 1 600.8018 253.7137)" class="st0 st1 st4">l</text>
	<text transform="matrix(1 0 0 1 604.9531 253.7137)" class="st0 st1 st4">o</text>
	<text transform="matrix(1 0 0 1 613.9102 253.7137)" class="st0 st1 st4">b</text>
	<text transform="matrix(1 0 0 1 622.8677 253.7137)" class="st0 st1 st4">a</text>
	<text transform="matrix(1 0 0 1 631.8247 253.7137)" class="st0 st1 st4">l</text>
	<text transform="matrix(1 0 0 1 636.1685 253.7137)" class="st0 st1 st4"> </text>
	<text transform="matrix(1 0 0 1 640.7056 253.7137)" class="st0 st1 st4">R</text>
	<text transform="matrix(1 0 0 1 651.0015 253.7137)" class="st0 st1 st4">e</text>
	<text transform="matrix(1 0 0 1 659.9585 253.7137)" class="st0 st1 st4">f</text>
	<text transform="matrix(1 0 0 1 665.6216 253.7137)" class="st0 st1 st4">o</text>
	<text transform="matrix(1 0 0 1 674.5786 253.7137)" class="st0 st1 st4">r</text>
	<text transform="matrix(1 0 0 1 680.2427 253.7137)" class="st0 st1 st4">m</text>
	<path id="XMLID_9_" class="st3" d="M557.8,252.3c0-103.3,88.9-222.2,204.4-222.2"/>
	<path id="XMLID_10_" class="st3" d="M557.8,255.9c0,60.3,111.5,109,249.2,109"/>
	<g id="End">
		<path id="XMLID_15_" class="st3" d="M557.8,255.9c17.8-79.2,164.9-164.7,326-143.3"/>
		<g id="_x31_">
			<g id="XMLID_105_">
				<g id="XMLID_106_">
					<path id="XMLID_118_" class="st5" d="M845.4,316h5.2c11.5,1.1,20.4,5.8,25.1,14.1c2.3,4.1,3.1,10.1,3.4,16.2
						c0.3,6.2-1.3,12.1-5.4,14c-0.9-2.4,0-6.8-0.7-9.4c-1.6,0.5-1.9,2.7-1.9,5s0.2,5,0.1,7.1c1.5,1.7,5.2,1.2,6.1,3.5
						c-3.2,9.2-15.3,9.5-19.9,17.3c-6.6-0.3-16.2,2.1-21-0.8c-1.8-1.1-2.9-4-4.2-5.3c-1.8-1.8-5.1-2.7-7.8-3.8
						c-2.6-1.1-5.9-2.5-6.7-4.8c-1.5-4.1,2.7-4.9,4.2-6.3c-0.6-13.2,2.8-23,6.3-30.1c-8.3,5.4-7.8,15.7-8,27.9
						c-0.4,0.1-0.6-0.4-0.8-0.6c-2.4-2.8-3.5-6.2-3.9-11c-0.8-9,2.4-16,6-20.8c5.3-7,13.1-11.9,23.8-12.1
						C845.3,316.1,845.4,316.1,845.4,316L845.4,316z M829.8,350.1c-2.9,2.8-4.2,12.5-0.3,14.9c1,0.6,2.5,0.7,3.5,0.7
						c5.2,0,9.5-5.8,9.5-11.3c0-4.4-2.9-6.8-7.5-6.3C832.7,348.4,831.1,348.9,829.8,350.1L829.8,350.1z M851.9,355.4
						c0.4,4.2,4.7,9.3,8,9.8c8.4,1.3,8.6-9,5.2-13.8c-1.5-2.1-3.5-3.4-6.2-3.3C854.2,348.3,851.4,350.6,851.9,355.4L851.9,355.4z
						 M850.4,373.9c-0.5-5-2.1-10.1-5-12.8c-2,3.8-2.9,7.1-2.6,13.2C844.2,372.2,848.9,372.6,850.4,373.9L850.4,373.9z"/>
					<path id="XMLID_116_" class="st5" d="M826.3,379.7c6.9,1,5.6,10.8,8.5,15.8c1.6,2.8,5.2,4.7,9,5.3c3.9,0.6,8.8,0.1,11.9-1.8
						c6.5-3.8,2.9-16.9,11.8-18.4c1.7,16.4-3.2,27.2-17.2,28.8c-4.4,0.5-9.8,0.3-13.5-1.6c-4-2-6.9-6.4-8.7-10.8
						c-1.9-4.6-2.9-10.7-1.9-16.9C826.2,379.9,826.2,379.7,826.3,379.7L826.3,379.7z"/>
					<path id="XMLID_115_" class="st5" d="M839.5,385c0.6,1.5,0.5,3.9-0.5,4.8C836.2,389.9,836.6,384.1,839.5,385L839.5,385z"/>
					<path id="XMLID_114_" class="st5" d="M853.9,389.4c-0.6-1.2-1-5.2,1.2-4.4C856.7,385.6,856.9,389.8,853.9,389.4L853.9,389.4z"
						/>
					<path id="XMLID_113_" class="st5" d="M843.8,389.8h-2.2c-0.2-2,0.1-5.7,1.8-4.7C844.6,385.8,843.5,388.2,843.8,389.8
						L843.8,389.8z"/>
					<path id="XMLID_112_" class="st5" d="M849.5,389.8c-0.9-1.7,0.3-3.6,0.8-4.8C852.8,385.3,852.6,390.8,849.5,389.8L849.5,389.8z
						"/>
					<path id="XMLID_111_" class="st5" d="M847.4,385.4c0.6,1,1,2.2,0.8,4h-2.6C845.6,387.7,844.8,384.8,847.4,385.4L847.4,385.4z"
						/>
					<path id="XMLID_110_" class="st5" d="M848.7,395c0.4,2-0.8,3.2-1.4,4.5C843.9,399.2,845.3,392.5,848.7,395L848.7,395z"/>
					<path id="XMLID_109_" class="st5" d="M839.4,394.8c0.6,0.7,0.7,2.2,0.1,2.9C837.2,398.3,837.1,393.6,839.4,394.8L839.4,394.8z"
						/>
					<path id="XMLID_108_" class="st5" d="M843.5,398.6c-2.5,1-2.5-5-0.4-3.8C844.1,395.4,844.1,397.4,843.5,398.6L843.5,398.6z"/>
					<path id="XMLID_107_" class="st5" d="M854.3,395c0.1,1.8-0.6,3.8-2.1,3.6C850,398.2,851.7,392.7,854.3,395L854.3,395z"/>
				</g>
			</g>
		</g>
		<g id="_x32_">
			<g id="XMLID_53_">
				<g id="XMLID_54_">
					<path id="XMLID_100_" class="st5" d="M806.1-20.1h5.2c11.5,1.1,20.4,5.8,25.1,14.1c2.3,4.1,3.1,10.1,3.4,16.2
						c0.3,6.2-1.3,12.1-5.4,14c-0.9-2.4,0-6.8-0.7-9.4c-1.6,0.5-1.9,2.7-1.9,5s0.2,5,0.1,7.1c1.5,1.7,5.2,1.2,6.1,3.5
						c-3.2,9.2-15.3,9.5-19.9,17.3c-6.6-0.3-16.2,2.1-21-0.8c-1.8-1.1-2.9-4-4.2-5.3c-1.8-1.8-5.1-2.7-7.8-3.8
						c-2.6-1.1-5.9-2.5-6.7-4.8c-1.5-4.1,2.7-4.9,4.2-6.3c-0.6-13.2,2.8-23,6.3-30.1c-8.3,5.4-7.8,15.7-8,27.9
						c-0.4,0.1-0.6-0.4-0.8-0.6c-2.4-2.8-3.5-6.2-3.9-11c-0.8-9,2.4-16,6-20.8c5.3-7,13.1-11.9,23.8-12.1
						C806-20,806.1-20,806.1-20.1L806.1-20.1z M790.5,14c-2.9,2.8-4.2,12.5-0.3,14.9c1,0.6,2.5,0.7,3.5,0.7c5.2,0,9.5-5.8,9.5-11.3
						c0-4.4-2.9-6.8-7.5-6.3C793.4,12.2,791.8,12.8,790.5,14L790.5,14z M812.6,19.3c0.4,4.2,4.7,9.3,8,9.8c8.4,1.3,8.6-9,5.2-13.8
						c-1.5-2.1-3.5-3.4-6.2-3.3C815,12.2,812.1,14.5,812.6,19.3L812.6,19.3z M811.2,37.8c-0.5-5-2.1-10.1-5-12.8
						c-2,3.8-2.9,7.1-2.6,13.2C804.9,36.1,809.6,36.5,811.2,37.8L811.2,37.8z"/>
					<path id="XMLID_99_" class="st5" d="M787,43.6c6.9,1,5.6,10.8,8.5,15.8c1.6,2.8,5.2,4.7,9,5.3c3.9,0.6,8.8,0.1,11.9-1.8
						c6.5-3.8,2.9-16.9,11.8-18.4c1.7,16.4-3.2,27.2-17.2,28.8c-4.4,0.5-9.8,0.3-13.5-1.6c-4-2-6.9-6.4-8.7-10.8
						c-1.9-4.6-2.9-10.7-1.9-16.9C786.9,43.8,786.9,43.6,787,43.6L787,43.6z"/>
					<path id="XMLID_90_" class="st5" d="M800.2,48.9c0.6,1.5,0.5,3.9-0.5,4.8C796.9,53.8,797.3,48,800.2,48.9L800.2,48.9z"/>
					<path id="XMLID_89_" class="st5" d="M814.6,53.3c-0.6-1.2-1-5.2,1.2-4.4C817.4,49.5,817.6,53.7,814.6,53.3L814.6,53.3z"/>
					<path id="XMLID_63_" class="st5" d="M804.5,53.7h-2.2c-0.2-2,0.1-5.7,1.8-4.7C805.3,49.6,804.2,52.1,804.5,53.7L804.5,53.7z"/>
					<path id="XMLID_60_" class="st5" d="M810.2,53.7c-0.9-1.7,0.3-3.6,0.8-4.8C813.5,49.2,813.4,54.7,810.2,53.7L810.2,53.7z"/>
					<path id="XMLID_59_" class="st5" d="M808.1,49.3c0.6,1,1,2.2,0.8,4h-2.6C806.3,51.6,805.5,48.7,808.1,49.3L808.1,49.3z"/>
					<path id="XMLID_58_" class="st5" d="M809.4,58.9c0.4,2-0.8,3.2-1.4,4.5C804.7,63.1,806,56.4,809.4,58.9L809.4,58.9z"/>
					<path id="XMLID_57_" class="st5" d="M800.1,58.7c0.6,0.7,0.7,2.2,0.1,2.9C797.9,62.2,797.8,57.5,800.1,58.7L800.1,58.7z"/>
					<path id="XMLID_56_" class="st5" d="M804.2,62.5c-2.5,1-2.5-5-0.4-3.8C804.8,59.2,804.8,61.3,804.2,62.5L804.2,62.5z"/>
					<path id="XMLID_55_" class="st5" d="M815.1,58.9c0.1,1.8-0.6,3.8-2.1,3.6C810.7,62.1,812.5,56.6,815.1,58.9L815.1,58.9z"/>
				</g>
			</g>
		</g>
		<g id="Past">
			<circle id="XMLID_20_" class="st6" cx="245.4" cy="413.5" r="7.3"/>
		</g>
		<g id="Dot_8_">
			<circle id="XMLID_17_" class="st6" cx="556.9" cy="255.9" r="7.3"/>
		</g>
		<g id="Dot_7_">
			<circle id="XMLID_24_" class="st6" cx="350" cy="361" r="5.8"/>
		</g>
		<g id="Dot_6_">
			<circle id="XMLID_27_" class="st6" cx="669.3" cy="55.9" r="5.8"/>
		</g>
		<g id="Dot_5_">
			<circle id="XMLID_26_" class="st6" cx="571.7" cy="224.8" r="5.8"/>
		</g>
		<g id="Dot_4_">
			<circle id="XMLID_46_" class="st6" cx="781.1" cy="364.1" r="5.8"/>
		</g>
		<g id="Dot_3_">
			<circle id="XMLID_52_" class="st6" cx="431.8" cy="319.6" r="5.8"/>
		</g>
	</g>
	<g id="Dot">
		<circle id="XMLID_120_" class="st0" cx="763.8" cy="30.3" r="7.3"/>
	</g>
	<g id="Dot_1_">
		<circle id="XMLID_14_" class="st0" cx="889" cy="112.6" r="7.3"/>
	</g>
	<g id="Dot_2_">
		<circle id="XMLID_117_" class="st0" cx="805.1" cy="365.2" r="7.3"/>
	</g>
</g>
</svg>
