<?xml version="1.0" encoding="utf-8"?>
<!-- Generator: Adobe Illustrator 19.0.0, SVG Export Plug-In . SVG Version: 6.00 Build 0)  -->
<svg version="1.1" id="Layer_1" xmlns="http://www.w3.org/2000/svg" xmlns:xlink="http://www.w3.org/1999/xlink" x="0px" y="0px"
	 viewBox="160 -106.3 920 613.3" style="enable-background:new 160 -106.3 920 613.3;" xml:space="preserve">
<style type="text/css">
	.st0{fill:#2EA4DD;}
	.st1{font-family:'Abel';}
	.st2{font-size:25.509px;}
	.st3{fill:none;stroke:#BCBEC0;stroke-miterlimit:10;}
	.st4{font-size:19.7253px;}
	.st5{fill:#4D4D4D;}
	.st6{fill:#00AEEF;}
</style>
<text id="XMLID_1_" transform="matrix(1 0 0 1 204.9033 383.5385)" class="st0 st1 st2">Past</text>
<text id="XMLID_2_" transform="matrix(1 0 0 1 472.8901 233.6362)" class="st0 st1 st2">Present</text>
<text transform="matrix(1 0 0 1 912.2383 119.6313)" class="st0 st1 st2">The </text>
<text transform="matrix(1 0 0 1 912.2383 150.2421)" class="st0 st1 st2">Best Future</text>
<text id="XMLID_4_" transform="matrix(1 0 0 1 897.9961 365.0483)" class="st0 st1 st2">Annihiliation</text>
<text id="XMLID_5_" transform="matrix(1 0 0 1 858.6934 25.8398)" class="st0 st1 st2">Annihiliation</text>
<line id="XMLID_6_" class="st3" x1="252.2" y1="402.9" x2="563.7" y2="245.3"/>
<text id="XMLID_7_" transform="matrix(1 0 0 1 358.4258 384.0698)" class="st0 st1 st4">WWI</text>
<text id="XMLID_8_" transform="matrix(1 0 0 1 446.2417 340.6743)" class="st0 st1 st4">WWII</text>
<text id="XMLID_16_" transform="matrix(1 0 0 1 742.1201 380.1245)" class="st0 st1 st4">WWIII</text>
<text transform="matrix(1 0 0 1 542.6724 11.9204)" class="st0 st1 st4">I</text>
<text transform="matrix(1 0 0 1 547.0737 11.9204)" class="st0 st1 st4">r</text>
<text transform="matrix(1 0 0 1 552.7373 11.9204)" class="st0 st1 st4">r</text>
<text transform="matrix(1 0 0 1 558.4004 11.9204)" class="st0 st1 st4">e</text>
<text transform="matrix(1 0 0 1 567.3579 11.9204)" class="st0 st1 st4">v</text>
<text transform="matrix(1 0 0 1 575.3232 11.9204)" class="st0 st1 st4">e</text>
<text transform="matrix(1 0 0 1 584.2803 11.9204)" class="st0 st1 st4">r</text>
<text transform="matrix(1 0 0 1 589.9434 11.9204)" class="st0 st1 st4">s</text>
<text transform="matrix(1 0 0 1 598.9971 11.9204)" class="st0 st1 st4">i</text>
<text transform="matrix(1 0 0 1 603.3408 11.9204)" class="st0 st1 st4">b</text>
<text transform="matrix(1 0 0 1 612.1055 11.9204)" class="st0 st1 st4">l</text>
<text transform="matrix(1 0 0 1 616.4492 11.9204)" class="st0 st1 st4">e</text>
<text transform="matrix(1 0 0 1 625.4067 11.9204)" class="st0 st1 st4"> </text>
<text transform="matrix(1 0 0 1 542.6724 35.5908)" class="st0 st1 st4">G</text>
<text transform="matrix(1 0 0 1 553.209 35.5908)" class="st0 st1 st4">l</text>
<text transform="matrix(1 0 0 1 557.3604 35.5908)" class="st0 st1 st4">o</text>
<text transform="matrix(1 0 0 1 566.3174 35.5908)" class="st0 st1 st4">b</text>
<text transform="matrix(1 0 0 1 575.2749 35.5908)" class="st0 st1 st4">a</text>
<text transform="matrix(1 0 0 1 584.2319 35.5908)" class="st0 st1 st4">l</text>
<text transform="matrix(1 0 0 1 588.5757 35.5908)" class="st0 st1 st4"> </text>
<text transform="matrix(1 0 0 1 593.1123 35.5908)" class="st0 st1 st4">W</text>
<text transform="matrix(1 0 0 1 607.6074 35.5908)" class="st0 st1 st4">a</text>
<text transform="matrix(1 0 0 1 616.5649 35.5908)" class="st0 st1 st4">r</text>
<text transform="matrix(1 0 0 1 622.228 35.5908)" class="st0 st1 st4">m</text>
<text transform="matrix(1 0 0 1 636.1934 35.5908)" class="st0 st1 st4">i</text>
<text transform="matrix(1 0 0 1 640.5381 35.5908)" class="st0 st1 st4">n</text>
<text transform="matrix(1 0 0 1 649.4951 35.5908)" class="st0 st1 st4">g</text>
<text transform="matrix(1 0 0 1 596.1689 219.4438)" class="st0 st1 st4">S</text>
<text transform="matrix(1 0 0 1 606.4072 219.4438)" class="st0 st1 st4">t</text>
<text transform="matrix(1 0 0 1 613.2554 219.4438)" class="st0 st1 st4">e</text>
<text transform="matrix(1 0 0 1 622.2124 219.4438)" class="st0 st1 st4">e</text>
<text transform="matrix(1 0 0 1 631.1699 219.4438)" class="st0 st1 st4">p</text>
<text transform="matrix(1 0 0 1 640.127 219.4438)" class="st0 st1 st4"> </text>
<text transform="matrix(1 0 0 1 596.1689 243.1137)" class="st0 st1 st4">G</text>
<text transform="matrix(1 0 0 1 606.7056 243.1137)" class="st0 st1 st4">l</text>
<text transform="matrix(1 0 0 1 610.8569 243.1137)" class="st0 st1 st4">o</text>
<text transform="matrix(1 0 0 1 619.814 243.1137)" class="st0 st1 st4">b</text>
<text transform="matrix(1 0 0 1 628.7715 243.1137)" class="st0 st1 st4">a</text>
<text transform="matrix(1 0 0 1 637.7285 243.1137)" class="st0 st1 st4">l</text>
<text transform="matrix(1 0 0 1 642.0723 243.1137)" class="st0 st1 st4"> </text>
<text transform="matrix(1 0 0 1 646.6094 243.1137)" class="st0 st1 st4">R</text>
<text transform="matrix(1 0 0 1 656.9053 243.1137)" class="st0 st1 st4">e</text>
<text transform="matrix(1 0 0 1 665.8623 243.1137)" class="st0 st1 st4">f</text>
<text transform="matrix(1 0 0 1 671.5254 243.1137)" class="st0 st1 st4">o</text>
<text transform="matrix(1 0 0 1 680.4824 243.1137)" class="st0 st1 st4">r</text>
<text transform="matrix(1 0 0 1 686.1465 243.1137)" class="st0 st1 st4">m</text>
<path id="XMLID_9_" class="st3" d="M563.7,241.7c0-103.3,88.9-222.2,204.4-222.2"/>
<path id="XMLID_10_" class="st3" d="M563.7,245.3c0,60.3,111.5,109,249.2,109"/>
<g id="End">
	<path id="XMLID_15_" class="st3" d="M563.7,245.3c17.8-79.2,164.9-164.7,326-143.3"/>
	<g id="_x31_">
		<g id="XMLID_105_">
			<g id="XMLID_106_">
				<path id="XMLID_118_" class="st5" d="M851.3,305.4h5.2c11.5,1.1,20.4,5.8,25.1,14.1c2.3,4.1,3.1,10.1,3.4,16.2
					c0.3,6.2-1.3,12.1-5.4,14c-0.9-2.4,0-6.8-0.7-9.4c-1.6,0.5-1.9,2.7-1.9,5s0.2,5,0.1,7.1c1.5,1.7,5.2,1.2,6.1,3.5
					c-3.2,9.2-15.3,9.5-19.9,17.3c-6.6-0.3-16.2,2.1-21-0.8c-1.8-1.1-2.9-4-4.2-5.3c-1.8-1.8-5.1-2.7-7.8-3.8
					c-2.6-1.1-5.9-2.5-6.7-4.8c-1.5-4.1,2.7-4.9,4.2-6.3c-0.6-13.2,2.8-23,6.3-30.1c-8.3,5.4-7.8,15.7-8,27.9
					c-0.4,0.1-0.6-0.4-0.8-0.6c-2.4-2.8-3.5-6.2-3.9-11c-0.8-9,2.4-16,6-20.8c5.3-7,13.1-11.9,23.8-12.1
					C851.2,305.5,851.3,305.5,851.3,305.4L851.3,305.4z M835.7,339.5c-2.9,2.8-4.2,12.5-0.3,14.9c1,0.6,2.5,0.7,3.5,0.7
					c5.2,0,9.5-5.8,9.5-11.3c0-4.4-2.9-6.8-7.5-6.3C838.6,337.8,837,338.3,835.7,339.5L835.7,339.5z M857.8,344.8
					c0.4,4.2,4.7,9.3,8,9.8c8.4,1.3,8.6-9,5.2-13.8c-1.5-2.1-3.5-3.4-6.2-3.3C860.1,337.7,857.3,340,857.8,344.8L857.8,344.8z
					 M856.3,363.3c-0.5-5-2.1-10.1-5-12.8c-2,3.8-2.9,7.1-2.6,13.2C850.1,361.6,854.8,362,856.3,363.3L856.3,363.3z"/>
				<path id="XMLID_116_" class="st5" d="M832.2,369.1c6.9,1,5.6,10.8,8.5,15.8c1.6,2.8,5.2,4.7,9,5.3c3.9,0.6,8.8,0.1,11.9-1.8
					c6.5-3.8,2.9-16.9,11.8-18.4c1.7,16.4-3.2,27.2-17.2,28.8c-4.4,0.5-9.8,0.3-13.5-1.6c-4-2-6.9-6.4-8.7-10.8
					c-1.9-4.6-2.9-10.7-1.9-16.9C832.1,369.3,832.1,369.1,832.2,369.1L832.2,369.1z"/>
				<path id="XMLID_115_" class="st5" d="M845.4,374.4c0.6,1.5,0.5,3.9-0.5,4.8C842.1,379.3,842.5,373.5,845.4,374.4L845.4,374.4z"
					/>
				<path id="XMLID_114_" class="st5" d="M859.8,378.8c-0.6-1.2-1-5.2,1.2-4.4C862.6,375,862.8,379.2,859.8,378.8L859.8,378.8z"/>
				<path id="XMLID_113_" class="st5" d="M849.7,379.2h-2.2c-0.2-2,0.1-5.7,1.8-4.7C850.5,375.2,849.4,377.6,849.7,379.2
					L849.7,379.2z"/>
				<path id="XMLID_112_" class="st5" d="M855.4,379.2c-0.9-1.7,0.3-3.6,0.8-4.8C858.7,374.7,858.5,380.2,855.4,379.2L855.4,379.2z"
					/>
				<path id="XMLID_111_" class="st5" d="M853.3,374.8c0.6,1,1,2.2,0.8,4h-2.6C851.5,377.1,850.7,374.2,853.3,374.8L853.3,374.8z"/>
				<path id="XMLID_110_" class="st5" d="M854.6,384.4c0.4,2-0.8,3.2-1.4,4.5C849.8,388.6,851.2,381.9,854.6,384.4L854.6,384.4z"/>
				<path id="XMLID_109_" class="st5" d="M845.3,384.2c0.6,0.7,0.7,2.2,0.1,2.9C843.1,387.7,843,383,845.3,384.2L845.3,384.2z"/>
				<path id="XMLID_108_" class="st5" d="M849.4,388c-2.5,1-2.5-5-0.4-3.8C850,384.8,850,386.8,849.4,388L849.4,388z"/>
				<path id="XMLID_107_" class="st5" d="M860.2,384.4c0.1,1.8-0.6,3.8-2.1,3.6C855.9,387.6,857.6,382.1,860.2,384.4L860.2,384.4z"
					/>
			</g>
		</g>
	</g>
	<g id="_x32_">
		<g id="XMLID_53_">
			<g id="XMLID_54_">
				<path id="XMLID_100_" class="st5" d="M812-30.7h5.2c11.5,1.1,20.4,5.8,25.1,14.1c2.3,4.1,3.1,10.1,3.4,16.2
					c0.3,6.2-1.3,12.1-5.4,14c-0.9-2.4,0-6.8-0.7-9.4c-1.6,0.5-1.9,2.7-1.9,5s0.2,5,0.1,7.1c1.5,1.7,5.2,1.2,6.1,3.5
					c-3.2,9.2-15.3,9.5-19.9,17.3c-6.6-0.3-16.2,2.1-21-0.8c-1.8-1.1-2.9-4-4.2-5.3c-1.8-1.8-5.1-2.7-7.8-3.8
					c-2.6-1.1-5.9-2.5-6.7-4.8c-1.5-4.1,2.7-4.9,4.2-6.3c-0.6-13.2,2.8-23,6.3-30.1c-8.3,5.4-7.8,15.7-8,27.9
					c-0.4,0.1-0.6-0.4-0.8-0.6c-2.4-2.8-3.5-6.2-3.9-11c-0.8-9,2.4-16,6-20.8c5.3-7,13.1-11.9,23.8-12.1
					C811.9-30.6,812-30.6,812-30.7L812-30.7z M796.4,3.4c-2.9,2.8-4.2,12.5-0.3,14.9c1,0.6,2.5,0.7,3.5,0.7c5.2,0,9.5-5.8,9.5-11.3
					c0-4.4-2.9-6.8-7.5-6.3C799.3,1.6,797.7,2.2,796.4,3.4L796.4,3.4z M818.5,8.7c0.4,4.2,4.7,9.3,8,9.8c8.4,1.3,8.6-9,5.2-13.8
					c-1.5-2.1-3.5-3.4-6.2-3.3C820.9,1.6,818,3.9,818.5,8.7L818.5,8.7z M817.1,27.2c-0.5-5-2.1-10.1-5-12.8c-2,3.8-2.9,7.1-2.6,13.2
					C810.8,25.5,815.5,25.9,817.1,27.2L817.1,27.2z"/>
				<path id="XMLID_99_" class="st5" d="M792.9,33c6.9,1,5.6,10.8,8.5,15.8c1.6,2.8,5.2,4.7,9,5.3c3.9,0.6,8.8,0.1,11.9-1.8
					c6.5-3.8,2.9-16.9,11.8-18.4c1.7,16.4-3.2,27.2-17.2,28.8c-4.4,0.5-9.8,0.3-13.5-1.6c-4-2-6.9-6.4-8.7-10.8
					c-1.9-4.6-2.9-10.7-1.9-16.9C792.8,33.2,792.8,33,792.9,33L792.9,33z"/>
				<path id="XMLID_90_" class="st5" d="M806.1,38.3c0.6,1.5,0.5,3.9-0.5,4.8C802.8,43.2,803.2,37.4,806.1,38.3L806.1,38.3z"/>
				<path id="XMLID_89_" class="st5" d="M820.5,42.7c-0.6-1.2-1-5.2,1.2-4.4C823.3,38.9,823.5,43.1,820.5,42.7L820.5,42.7z"/>
				<path id="XMLID_63_" class="st5" d="M810.4,43.1h-2.2c-0.2-2,0.1-5.7,1.8-4.7C811.2,39,810.1,41.5,810.4,43.1L810.4,43.1z"/>
				<path id="XMLID_60_" class="st5" d="M816.1,43.1c-0.9-1.7,0.3-3.6,0.8-4.8C819.4,38.6,819.3,44.1,816.1,43.1L816.1,43.1z"/>
				<path id="XMLID_59_" class="st5" d="M814,38.7c0.6,1,1,2.2,0.8,4h-2.6C812.2,41,811.4,38.1,814,38.7L814,38.7z"/>
				<path id="XMLID_58_" class="st5" d="M815.3,48.3c0.4,2-0.8,3.2-1.4,4.5C810.6,52.5,811.9,45.8,815.3,48.3L815.3,48.3z"/>
				<path id="XMLID_57_" class="st5" d="M806,48.1c0.6,0.7,0.7,2.2,0.1,2.9C803.8,51.6,803.7,46.9,806,48.1L806,48.1z"/>
				<path id="XMLID_56_" class="st5" d="M810.1,51.9c-2.5,1-2.5-5-0.4-3.8C810.7,48.6,810.7,50.7,810.1,51.9L810.1,51.9z"/>
				<path id="XMLID_55_" class="st5" d="M821,48.3c0.1,1.8-0.6,3.8-2.1,3.6C816.6,51.5,818.4,46,821,48.3L821,48.3z"/>
			</g>
		</g>
	</g>
	<g id="Past">
		<circle id="XMLID_20_" class="st6" cx="251.3" cy="402.9" r="7.3"/>
	</g>
	<g id="Dot_8_">
		<circle id="XMLID_17_" class="st6" cx="562.8" cy="245.3" r="7.3"/>
	</g>
	<g id="Dot_7_">
		<circle id="XMLID_24_" class="st6" cx="355.9" cy="350.4" r="5.8"/>
	</g>
	<g id="Dot_6_">
		<circle id="XMLID_27_" class="st6" cx="675.2" cy="45.3" r="5.8"/>
	</g>
	<g id="Dot_5_">
		<circle id="XMLID_26_" class="st6" cx="577.6" cy="214.2" r="5.8"/>
	</g>
	<g id="Dot_4_">
		<circle id="XMLID_46_" class="st6" cx="787" cy="353.5" r="5.8"/>
	</g>
	<g id="Dot_3_">
		<circle id="XMLID_52_" class="st6" cx="437.7" cy="309" r="5.8"/>
	</g>
</g>
<g id="Dot">
	<circle id="XMLID_120_" class="st0" cx="769.7" cy="19.7" r="7.3"/>
</g>
<g id="Dot_1_">
	<circle id="XMLID_14_" class="st0" cx="894.9" cy="102" r="7.3"/>
</g>
<g id="Dot_2_">
	<circle id="XMLID_117_" class="st0" cx="811" cy="354.6" r="7.3"/>
</g>
</svg>
