<?xml version="1.0" encoding="utf-8"?>
<!-- Generator: Adobe Illustrator 19.0.0, SVG Export Plug-In . SVG Version: 6.00 Build 0)  -->
<svg version="1.1" baseProfile="tiny"
	 id="svg2985" xmlns:dc="http://purl.org/dc/elements/1.1/" xmlns:inkscape="http://www.inkscape.org/namespaces/inkscape" xmlns:svg="http://www.w3.org/2000/svg" xmlns:cc="http://creativecommons.org/ns#" xmlns:sodipodi="http://sodipodi.sourceforge.net/DTD/sodipodi-0.dtd" xmlns:rdf="http://www.w3.org/1999/02/22-rdf-syntax-ns#" inkscape:export-filename="D:\Personal\Programming\WCode\Design\Logo Full\Logo Full.png" inkscape:export-xdpi="71.999664" inkscape:export-ydpi="71.999664" inkscape:version="0.91 r13725" sodipodi:docname="Logo Full.svg"
	 xmlns="http://www.w3.org/2000/svg" xmlns:xlink="http://www.w3.org/1999/xlink" x="0px" y="0px" viewBox="-201 360 208 74"
	 xml:space="preserve">
<sodipodi:namedview  guidetolerance="10" inkscape:cx="73.363817" showborder="true" showguides="false" showgrid="false" fit-margin-left="2" gridtolerance="10" inkscape:cy="10.333643" bordercolor="#666666" id="namedview2987" objecttolerance="10" pagecolor="#ffffff" fit-margin-top="2" borderopacity="1" inkscape:zoom="6.6937322" inkscape:showpageshadow="false" inkscape:window-width="1920" inkscape:pageopacity="0" inkscape:pageshadow="2" inkscape:window-height="1057" inkscape:window-x="-8" inkscape:window-maximized="1" inkscape:window-y="-8" fit-margin-bottom="2" inkscape:guide-bbox="true" inkscape:current-layer="svg2985" fit-margin-right="2">
	<sodipodi:guide  id="guide2987" position="43.833667,7.0943844" orientation="0,1"></sodipodi:guide>
</sodipodi:namedview>
<rect x="-197" y="408" fill="none" width="244" height="51"/>
<g>
	<path fill="#56B4D1" d="M-157.7,407.9c-0.5,1.3-1.3,2.3-2.2,3.3s-2,1.7-3.3,2.2c-1.3,0.5-2.6,0.8-4,0.8h-3c-1.4,0-2.8-0.3-4-0.8
		s-2.4-1.3-3.3-2.2s-1.7-2-2.2-3.3c-0.5-1.3-0.8-2.6-0.8-4v-32.3h3.8v32.3c0,0.9,0.2,1.8,0.5,2.6s0.8,1.5,1.5,2.1s1.3,1.1,2.1,1.5
		c0.8,0.4,1.7,0.5,2.6,0.5h2.6c0.9,0,1.8-0.2,2.6-0.5c0.8-0.4,1.5-0.8,2.1-1.5c0.6-0.6,1.1-1.3,1.4-2.1s0.5-1.7,0.5-2.6v-32.3h3.8
		v32.3C-156.9,405.4-157.1,406.7-157.7,407.9z"/>
	<path fill="#56B4D1" d="M-144.9,420.3c-0.5,1.1-1.1,2-1.9,2.8c-0.8,0.8-1.7,1.4-2.8,1.9c-1.1,0.5-2.2,0.7-3.4,0.7v-3.4
		c0.7,0,1.4-0.1,2-0.4c0.6-0.3,1.2-0.6,1.7-1.1s0.8-1,1.1-1.7c0.3-0.6,0.4-1.3,0.4-2v-33.4h3.6v33.2
		C-144.2,418.1-144.5,419.2-144.9,420.3z M-148.1,376.4v-4.8h4.2v4.8H-148.1z"/>
	<path fill="#56B4D1" d="M-119.4,413.7v-22c0-0.7-0.1-1.4-0.4-2c-0.3-0.6-0.6-1.2-1.1-1.7s-1-0.8-1.7-1.1c-0.6-0.3-1.3-0.4-2-0.4
		h-2.4c-0.7,0-1.4,0.1-2,0.4c-0.6,0.3-1.2,0.6-1.7,1.1s-0.8,1-1.1,1.7c-0.3,0.6-0.4,1.3-0.4,2v22h-3.6v-30h1.2l2,3
		c0.8-1.1,1.9-2,3.1-2.7c1.2-0.7,2.6-1,4.1-1h0.9c1.2,0,2.4,0.2,3.4,0.7c1.1,0.5,2,1.1,2.8,1.9c0.8,0.8,1.4,1.7,1.9,2.8
		c0.5,1.1,0.7,2.2,0.7,3.4v21.8H-119.4z"/>
	<path fill="#56B4D1" d="M-89.2,408.9c-0.5,1.1-1.1,2-1.9,2.8s-1.7,1.4-2.8,1.9s-2.2,0.7-3.4,0.7h-2.4c-1.2,0-2.4-0.2-3.4-0.7
		c-1.1-0.5-2-1.1-2.8-1.9c-0.8-0.8-1.4-1.7-1.9-2.8c-0.5-1.1-0.7-2.2-0.7-3.4v-13.5c0-1.2,0.2-2.4,0.7-3.4c0.5-1.1,1.1-2,1.9-2.8
		c0.8-0.8,1.7-1.4,2.8-1.9c1.1-0.5,2.2-0.7,3.4-0.7h2.4c1.2,0,2.4,0.2,3.4,0.7s2,1.1,2.8,1.9s1.4,1.7,1.9,2.8s0.7,2.2,0.7,3.4v13.5
		C-88.5,406.6-88.8,407.8-89.2,408.9z M-92.1,391.7c0-0.7-0.1-1.4-0.4-2s-0.6-1.2-1.1-1.7s-1-0.8-1.7-1.1s-1.3-0.4-2-0.4h-2.4
		c-0.7,0-1.4,0.1-2,0.4c-0.6,0.3-1.2,0.6-1.7,1.1s-0.8,1-1.1,1.7c-0.3,0.6-0.4,1.3-0.4,2v13.9c0,0.7,0.1,1.4,0.4,2
		c0.3,0.6,0.6,1.2,1.1,1.7s1,0.8,1.7,1.1c0.6,0.3,1.3,0.4,2,0.4h2.4c0.7,0,1.4-0.1,2-0.4s1.2-0.6,1.7-1.1s0.8-1,1.1-1.7
		s0.4-1.3,0.4-2V391.7z"/>
	<path fill="#56B4D1" d="M-70.4,413.7c-1.1,0-2.1-0.2-3.1-0.6s-1.8-1-2.5-1.7s-1.3-1.6-1.7-2.5s-0.6-2-0.6-3.1v-18.7h-5.4v-3.4h5.4
		v-7.2l3.6-0.6v7.8h7.6v3.4h-7.6v18.8c0,0.6,0.1,1.2,0.3,1.7s0.5,1,0.9,1.4s0.8,0.7,1.4,0.9s1.1,0.3,1.7,0.3h3.3v3.4H-70.4z"/>
	<path fill="#56B4D1" d="M-41.1,408.9c-0.5,1.1-1.1,2-1.9,2.8s-1.7,1.4-2.8,1.9s-2.2,0.7-3.4,0.7h-2.4c-1.2,0-2.4-0.2-3.4-0.7
		s-2-1.1-2.8-1.9s-1.4-1.7-1.9-2.8s-0.7-2.2-0.7-3.4v-13.5c0-1.2,0.2-2.4,0.7-3.4s1.1-2,1.9-2.8s1.7-1.4,2.8-1.9s2.2-0.7,3.4-0.7
		h2.4c1.2,0,2.4,0.2,3.4,0.7s2,1.1,2.8,1.9s1.4,1.7,1.9,2.8s0.7,2.2,0.7,3.4v7.1h-16.4v6.7c0,0.7,0.1,1.4,0.4,2s0.6,1.2,1.1,1.7
		s1,0.8,1.7,1.1s1.3,0.4,2,0.4h2.4c0.7,0,1.4-0.1,2-0.4s1.2-0.6,1.7-1.1s0.8-1,1.1-1.7s0.4-1.3,0.4-2v-2l3.6,0.6v1.2
		C-40.5,406.6-40.7,407.8-41.1,408.9z M-44.1,391.7c0-0.7-0.1-1.4-0.4-2s-0.6-1.2-1.1-1.7s-1-0.8-1.7-1.1s-1.3-0.4-2-0.4h-2.4
		c-0.7,0-1.4,0.1-2,0.4s-1.2,0.6-1.7,1.1s-0.8,1-1.1,1.7s-0.4,1.3-0.4,2v4.5h12.8V391.7z"/>
	<path fill="#56B4D1" d="M-12.6,406c0,1.2-0.2,2.3-0.7,3.3s-1.2,1.9-2,2.6s-1.8,1.3-2.9,1.7s-2.3,0.6-3.5,0.6h-2.4
		c-1.2,0-2.4-0.2-3.5-0.7s-2.1-1.1-2.9-1.9s-1.5-1.7-2-2.8s-0.7-2.2-0.7-3.4v-1.2l3.6-0.6v2c0,0.7,0.2,1.4,0.5,2s0.7,1.2,1.2,1.7
		s1.1,0.8,1.8,1.1s1.4,0.4,2.1,0.4h2.4c0.7,0,1.4-0.1,2.1-0.3s1.3-0.5,1.8-0.9s0.9-0.9,1.2-1.5s0.5-1.2,0.5-1.9c0-1.1-0.2-2-0.7-2.6
		s-1.1-1.3-1.9-1.7s-1.7-0.8-2.6-1.1s-2-0.6-3-0.9s-2-0.6-3-1s-1.9-0.9-2.6-1.5s-1.4-1.4-1.9-2.4s-0.7-2.1-0.7-3.6
		c0-1.2,0.2-2.3,0.7-3.3s1.1-1.9,1.9-2.6s1.7-1.3,2.8-1.7s2.2-0.6,3.4-0.6h2.1c1.2,0,2.4,0.2,3.4,0.7s2,1.1,2.8,1.9s1.4,1.7,1.9,2.8
		s0.7,2.2,0.7,3.4v0.1l-3.6,0.6v-0.9c0-0.7-0.1-1.4-0.4-2s-0.6-1.2-1.1-1.7s-1-0.8-1.7-1.1s-1.3-0.4-2-0.4h-2.1
		c-0.7,0-1.4,0.1-2,0.3s-1.2,0.5-1.7,0.9s-0.8,0.9-1.1,1.5s-0.4,1.2-0.4,1.9c0,1,0.2,1.9,0.7,2.5s1.1,1.2,1.9,1.7s1.7,0.8,2.6,1.1
		s2,0.6,3,0.9s2,0.7,3,1.1s1.9,0.9,2.6,1.6s1.4,1.5,1.9,2.4S-12.6,404.6-12.6,406z"/>
</g>
</svg>
